<mxfile host="app.diagrams.net" modified="2023-04-27T15:32:51.209Z" agent="Mozilla/5.0 (Macintosh; Intel Mac OS X 10_15_7) AppleWebKit/605.1.15 (KHTML, like Gecko) Version/16.3 Safari/605.1.15" etag="_QseU3Uf37ekmbdOMzoZ" version="21.2.3">
  <diagram name="Страница 1" id="igfU8gLaWjbq7Pzlw07u">
    <mxGraphModel dx="954" dy="623" grid="1" gridSize="10" guides="1" tooltips="1" connect="1" arrows="1" fold="1" page="1" pageScale="1" pageWidth="827" pageHeight="1169" math="1" shadow="0">
      <root>
        <mxCell id="0" />
        <mxCell id="1" parent="0" />
        <mxCell id="_CXX0PR6HLglEDPucWaO-19" style="edgeStyle=orthogonalEdgeStyle;rounded=0;orthogonalLoop=1;jettySize=auto;html=1;exitX=1;exitY=0.5;exitDx=0;exitDy=0;entryX=0;entryY=0.5;entryDx=0;entryDy=0;" parent="1" source="_CXX0PR6HLglEDPucWaO-4" target="_CXX0PR6HLglEDPucWaO-8" edge="1">
          <mxGeometry relative="1" as="geometry" />
        </mxCell>
        <mxCell id="_CXX0PR6HLglEDPucWaO-4" value="&lt;font style=&quot;font-size: 17px;&quot;&gt;Original dataset&amp;nbsp;&lt;/font&gt;" style="rounded=1;whiteSpace=wrap;html=1;" parent="1" vertex="1">
          <mxGeometry x="40" y="350" width="180" height="60" as="geometry" />
        </mxCell>
        <mxCell id="_CXX0PR6HLglEDPucWaO-5" value="&lt;font style=&quot;font-size: 15px;&quot;&gt;Starting with 100% of&lt;br&gt;original dataset&lt;/font&gt;" style="text;html=1;align=left;verticalAlign=middle;resizable=0;points=[];autosize=1;strokeColor=none;fillColor=none;" parent="1" vertex="1">
          <mxGeometry x="40" y="410" width="170" height="50" as="geometry" />
        </mxCell>
        <mxCell id="_CXX0PR6HLglEDPucWaO-7" value="&lt;font style=&quot;font-size: 15px;&quot;&gt;Sample new `(x^i, y_i)`&amp;nbsp;&lt;/font&gt;" style="text;html=1;align=center;verticalAlign=middle;resizable=0;points=[];autosize=1;strokeColor=none;fillColor=none;" parent="1" vertex="1">
          <mxGeometry x="250" y="350" width="180" height="30" as="geometry" />
        </mxCell>
        <mxCell id="_CXX0PR6HLglEDPucWaO-9" style="edgeStyle=orthogonalEdgeStyle;rounded=0;orthogonalLoop=1;jettySize=auto;html=1;exitX=1;exitY=0.5;exitDx=0;exitDy=0;entryX=1;entryY=0.5;entryDx=0;entryDy=0;" parent="1" source="_CXX0PR6HLglEDPucWaO-8" target="_CXX0PR6HLglEDPucWaO-14" edge="1">
          <mxGeometry relative="1" as="geometry">
            <mxPoint x="550" y="140" as="targetPoint" />
            <Array as="points">
              <mxPoint x="700" y="380" />
              <mxPoint x="700" y="200" />
            </Array>
          </mxGeometry>
        </mxCell>
        <mxCell id="_CXX0PR6HLglEDPucWaO-8" value="&lt;font style=&quot;font-size: 17px;&quot;&gt;Linear model&lt;/font&gt;" style="rounded=1;whiteSpace=wrap;html=1;" parent="1" vertex="1">
          <mxGeometry x="450" y="350" width="140" height="60" as="geometry" />
        </mxCell>
        <mxCell id="_CXX0PR6HLglEDPucWaO-12" value="&lt;font style=&quot;font-size: 15px;&quot;&gt;Predict `y&#39; = H(x^i, \theta, t)`&lt;br&gt;&lt;/font&gt;" style="text;html=1;align=center;verticalAlign=middle;resizable=0;points=[];autosize=1;strokeColor=none;fillColor=none;" parent="1" vertex="1">
          <mxGeometry x="510" y="280" width="210" height="30" as="geometry" />
        </mxCell>
        <mxCell id="_CXX0PR6HLglEDPucWaO-21" style="edgeStyle=orthogonalEdgeStyle;rounded=0;orthogonalLoop=1;jettySize=auto;html=1;exitX=0;exitY=0.5;exitDx=0;exitDy=0;" parent="1" source="_CXX0PR6HLglEDPucWaO-14" edge="1">
          <mxGeometry relative="1" as="geometry">
            <mxPoint x="130" y="350" as="targetPoint" />
            <Array as="points">
              <mxPoint x="130" y="200" />
              <mxPoint x="130" y="350" />
            </Array>
          </mxGeometry>
        </mxCell>
        <mxCell id="_CXX0PR6HLglEDPucWaO-14" value="&lt;font style=&quot;font-size: 17px;&quot;&gt;Environment&lt;/font&gt;" style="rhombus;whiteSpace=wrap;html=1;" parent="1" vertex="1">
          <mxGeometry x="400" y="160" width="190" height="80" as="geometry" />
        </mxCell>
        <mxCell id="_CXX0PR6HLglEDPucWaO-16" value="&lt;font style=&quot;font-size: 15px;&quot;&gt;Sample `z \sim N(y&#39;, s \sigma^2)` with prob `p`&lt;br&gt;&lt;/font&gt;&lt;div style=&quot;text-align: left; font-size: 15px;&quot;&gt;&lt;font style=&quot;font-size: 15px;&quot;&gt;or select `z = y_i` with prob `(1-p)`&lt;/font&gt;&lt;/div&gt;" style="text;html=1;align=center;verticalAlign=middle;resizable=0;points=[];autosize=1;strokeColor=none;fillColor=none;" parent="1" vertex="1">
          <mxGeometry x="360" y="110" width="330" height="50" as="geometry" />
        </mxCell>
        <mxCell id="_CXX0PR6HLglEDPucWaO-22" value="&lt;font style=&quot;font-size: 15px;&quot;&gt;Add `(x^i, z)` to original&lt;br&gt;&lt;/font&gt;&lt;div style=&quot;text-align: left; font-size: 15px;&quot;&gt;&lt;font style=&quot;font-size: 15px;&quot;&gt;data at each step&lt;/font&gt;&lt;/div&gt;" style="text;html=1;align=center;verticalAlign=middle;resizable=0;points=[];autosize=1;strokeColor=none;fillColor=none;" parent="1" vertex="1">
          <mxGeometry x="120" y="150" width="180" height="50" as="geometry" />
        </mxCell>
        <mxCell id="XAXBl_ANTsRE0CVsiFGp-1" value="&lt;font style=&quot;font-size: 15px;&quot;&gt;Linear model `H(x, \theta, t)`&lt;br&gt;&lt;/font&gt;&lt;div style=&quot;font-size: 15px;&quot;&gt;&lt;font style=&quot;font-size: 15px;&quot;&gt;Retrained after `T` steps&amp;nbsp;&lt;/font&gt;&lt;/div&gt;" style="text;html=1;align=left;verticalAlign=middle;resizable=0;points=[];autosize=1;strokeColor=none;fillColor=none;" parent="1" vertex="1">
          <mxGeometry x="450" y="410" width="210" height="50" as="geometry" />
        </mxCell>
        <mxCell id="XAXBl_ANTsRE0CVsiFGp-2" value="&lt;font style=&quot;font-size: 15px;&quot;&gt;`t \leftarrow t+1`&lt;/font&gt;" style="text;html=1;align=center;verticalAlign=middle;resizable=0;points=[];autosize=1;strokeColor=none;fillColor=none;" parent="1" vertex="1">
          <mxGeometry x="105" y="260" width="130" height="30" as="geometry" />
        </mxCell>
      </root>
    </mxGraphModel>
  </diagram>
</mxfile>
